<svg id="visual" viewBox="0 0 50 50" width="50" height="50" xmlns="http://www.w3.org/2000/svg" xmlns:xlink="http://www.w3.org/1999/xlink" version="1.1"><rect x="0" y="0" width="50" height="50" fill="#002233"></rect><path d="M0 35L0.5 33.2C1 31.3 2 27.7 2.8 26.8C3.7 26 4.3 28 5.2 27.3C6 26.7 7 23.3 7.8 22.2C8.7 21 9.3 22 10.2 25.3C11 28.7 12 34.3 12.8 33.2C13.7 32 14.3 24 15.2 21.8C16 19.7 17 23.3 17.8 25C18.7 26.7 19.3 26.3 20.2 26C21 25.7 22 25.3 22.8 23.7C23.7 22 24.3 19 25.2 18C26 17 27 18 27.8 18.2C28.7 18.3 29.3 17.7 30.2 17.2C31 16.7 32 16.3 32.8 19.8C33.7 23.3 34.3 30.7 35.2 34.2C36 37.7 37 37.3 37.8 37.7C38.7 38 39.3 39 40.2 38.3C41 37.7 42 35.3 42.8 33C43.7 30.7 44.3 28.3 45.2 26.8C46 25.3 47 24.7 47.8 25.7C48.7 26.7 49.3 29.3 49.7 30.7L50 32L50 51L49.7 51C49.3 51 48.7 51 47.8 51C47 51 46 51 45.2 51C44.3 51 43.7 51 42.8 51C42 51 41 51 40.2 51C39.3 51 38.7 51 37.8 51C37 51 36 51 35.2 51C34.3 51 33.7 51 32.8 51C32 51 31 51 30.2 51C29.3 51 28.7 51 27.8 51C27 51 26 51 25.2 51C24.3 51 23.7 51 22.8 51C22 51 21 51 20.2 51C19.3 51 18.7 51 17.8 51C17 51 16 51 15.2 51C14.3 51 13.7 51 12.8 51C12 51 11 51 10.2 51C9.3 51 8.7 51 7.8 51C7 51 6 51 5.2 51C4.3 51 3.7 51 2.8 51C2 51 1 51 0.5 51L0 51Z" fill="#0066FF" stroke-linecap="round" stroke-linejoin="miter"></path></svg>